HIERARCHY
ROOT Hips
{
	OFFSET 0.000000 0.000000 0.000000
	CHANNELS 6 Xposition Yposition Zposition Zrotation Yrotation Xrotation 
	JOINT LHipJoint
	{
		OFFSET 0.000000 0.000000 0.000000
		CHANNELS 3 Zrotation Yrotation Xrotation
		JOINT LeftUpLeg
		{
			OFFSET 1.363060 -1.794630 0.839290
			CHANNELS 3 Zrotation Yrotation Xrotation
			JOINT LeftLeg
			{
				OFFSET 2.448110 -6.726130 0.000000
				CHANNELS 3 Zrotation Yrotation Xrotation
				JOINT LeftFoot
				{
					OFFSET 2.562200 -7.039590 0.000000
					CHANNELS 3 Zrotation Yrotation Xrotation
					JOINT LeftToeBase
					{
						OFFSET 0.157640 -0.433110 2.322550
						CHANNELS 3 Zrotation Yrotation Xrotation
						End Site
						{
							OFFSET 0.000000 0.000000 0.000000
						}
					}
				}
			}
		}
	}
	JOINT RHipJoint
	{
		OFFSET 0.000000 0.000000 0.000000
		CHANNELS 3 Zrotation Yrotation Xrotation
		JOINT RightUpLeg
		{
			OFFSET -1.305520 -1.794630 0.839290
			CHANNELS 3 Zrotation Yrotation Xrotation
			JOINT RightLeg
			{
				OFFSET -2.542530 -6.985550 0.000000
				CHANNELS 3 Zrotation Yrotation Xrotation
				JOINT RightFoot
				{
					OFFSET -2.568260 -7.056230 0.000000
					CHANNELS 3 Zrotation Yrotation Xrotation
					JOINT RightToeBase
					{
						OFFSET -0.164730 -0.452590 2.363150
						CHANNELS 3 Zrotation Yrotation Xrotation
						End Site
						{
							OFFSET 0.000000 0.000000 0.000000
						}
					}
				}
			}
		}
	}
	JOINT LowerBack
	{
		OFFSET 0.000000 0.000000 0.000000
		CHANNELS 3 Zrotation Yrotation Xrotation
		JOINT Spine
		{
			OFFSET 0.028270 2.035590 -0.193380
			CHANNELS 3 Zrotation Yrotation Xrotation
			JOINT Spine1
			{
				OFFSET 0.056720 2.048850 -0.042750
				CHANNELS 3 Zrotation Yrotation Xrotation
				JOINT Neck
				{
					OFFSET 0.000000 0.000000 0.000000
					CHANNELS 3 Zrotation Yrotation Xrotation
					JOINT Neck1
					{
						OFFSET -0.054170 1.746240 0.172020
						CHANNELS 3 Zrotation Yrotation Xrotation
						JOINT Head
						{
							OFFSET 0.104070 1.761360 -0.123970
							CHANNELS 3 Zrotation Yrotation Xrotation
							End Site
							{
								OFFSET 0.000000 0.000000 0.000000
							}
						}
					}
				}
				JOINT LeftShoulder
				{
					OFFSET 0.000000 0.000000 0.000000
					CHANNELS 3 Zrotation Yrotation Xrotation
					JOINT LeftArm
					{
						OFFSET 3.362410 1.200890 -0.311210
						CHANNELS 3 Zrotation Yrotation Xrotation
						JOINT LeftForeArm
						{
							OFFSET 4.983000 -0.000000 -0.000000
							CHANNELS 3 Zrotation Yrotation Xrotation
							JOINT LeftHand
							{
								OFFSET 3.483560 -0.000000 -0.000000
								CHANNELS 3 Zrotation Yrotation Xrotation
								JOINT LeftFingerBase
								{
									OFFSET 0.000000 0.000000 0.000000
									CHANNELS 3 Zrotation Yrotation Xrotation
									JOINT LeftHandIndex1
									{
										OFFSET 0.715260 -0.000000 -0.000000
										CHANNELS 3 Zrotation Yrotation Xrotation
										End Site
										{
											OFFSET 0.000000 0.000000 0.000000
										}
									}
								}
								JOINT LThumb
								{
									OFFSET 0.000000 0.000000 0.000000
									CHANNELS 3 Zrotation Yrotation Xrotation
									End Site
									{
										OFFSET 0.000000 0.000000 0.000000
									}
								}
							}
						}
					}
				}
				JOINT RightShoulder
				{
					OFFSET 0.000000 0.000000 0.000000
					CHANNELS 3 Zrotation Yrotation Xrotation
					JOINT RightArm
					{
						OFFSET -3.136600 1.374050 -0.404650
						CHANNELS 3 Zrotation Yrotation Xrotation
						JOINT RightForeArm
						{
							OFFSET -5.241900 -0.000000 -0.000000
							CHANNELS 3 Zrotation Yrotation Xrotation
							JOINT RightHand
							{
								OFFSET -3.444170 -0.000000 -0.000000
								CHANNELS 3 Zrotation Yrotation Xrotation
								JOINT RightFingerBase
								{
									OFFSET 0.000000 0.000000 0.000000
									CHANNELS 3 Zrotation Yrotation Xrotation
									JOINT RightHandIndex1
									{
										OFFSET -0.622530 -0.000000 -0.000000
										CHANNELS 3 Zrotation Yrotation Xrotation
										End Site
										{
											OFFSET 0.000000 0.000000 0.000000
										}
									}
								}
								JOINT RThumb
								{
									OFFSET 0.000000 0.000000 0.000000
									CHANNELS 3 Zrotation Yrotation Xrotation
									End Site
									{
										OFFSET 0.000000 0.000000 0.000000
									}
								}
							}
						}
					}
				}
			}
		}
	}
}
MOTION
Frames: 5
Frame Time: 0.033333
-0.373349 17.158204 -0.373349 -4.475179 10.249480 2.896608 -2.209277 5.420291 -1.370023 -13.878137 1.250404 2.276862 -1.703110 -5.850931 -17.559925 0.371118 -2.016590 -8.248777 0.000000 0.000000 0.000000 -3.919688 -6.836047 -16.694781 26.529831 -11.202099 11.451774 10.170317 -4.537429 -2.773679 0.817272 3.242864 -25.614938 0.000000 0.000000 0.000000 2.205929 0.639129 20.850056 4.968227 1.135042 -5.450617 -8.271900 2.673335 -8.751161 6.252057 0.432925 -1.289768 3.963093 -0.034130 5.063793 0.000000 0.000000 0.000000 0.979690 9.019597 5.523026 -68.738038 -11.803967 -0.119901 -37.573640 0.813764 -0.091714 -1.630275 -3.961601 -0.045957 -1.626014 -3.963738 0.000000 0.000000 0.000000 0.000000 0.000000 0.000000 0.000000 -14.673146 -13.130716 3.919072 87.177931 9.481154 4.645661 165.047633 69.101945 -179.997119 -2.961731 4.240039 -0.000211 -2.978978 4.235471 0.000000 0.000000 0.000000 0.000000 0.000000 0.000000 0.000000 
-0.351656 17.224786 -0.121176 -4.542819 9.835142 2.665297 -2.198460 5.786477 -1.076853 -13.823711 1.263583 2.131673 -1.455744 -5.075293 -15.616335 0.422723 -2.664610 -10.014556 0.000000 0.000000 0.000000 -3.808331 -7.524551 -17.407131 26.393831 -12.961127 11.426927 10.941239 -6.119311 -3.253520 1.235374 0.780787 -23.831760 0.000000 0.000000 0.000000 1.943628 0.933829 21.019442 5.133401 1.318285 -5.441867 -7.879800 2.780633 -10.071298 6.391092 0.502242 -0.720335 3.741376 -0.018589 5.086646 0.000000 0.000000 0.000000 -0.728416 9.327673 6.032363 -68.581071 -10.887473 -0.386994 -35.205017 2.798693 -0.093862 -1.530932 -3.657714 -0.047006 -1.527446 -3.659515 0.000000 0.000000 0.000000 0.000000 0.000000 0.000000 0.000000 -12.676827 -13.360598 4.083262 84.528100 5.024538 7.417923 168.055964 70.709409 -179.969621 -3.377519 5.766228 0.013184 -3.400978 5.759501 0.000000 0.000000 0.000000 0.000000 0.000000 0.000000 0.000000 
-0.331844 17.278934 0.129463 -4.611738 9.372404 2.426964 -2.169562 6.183659 -0.777918 -13.785167 1.290589 2.001431 -1.175564 -4.313981 -13.735856 0.480888 -3.296919 -11.766604 0.000000 0.000000 0.000000 -3.690672 -8.247202 -18.132838 26.352783 -14.570475 11.352268 11.282156 -7.831813 -3.025514 1.531477 -1.365546 -22.323137 0.000000 0.000000 0.000000 1.657136 1.175822 21.187292 5.337645 1.461267 -5.453870 -7.551621 2.831287 -11.384718 6.559867 0.559206 -0.099925 3.546828 -0.001035 5.082805 0.000000 0.000000 0.000000 -2.454144 9.887334 6.522366 -68.231337 -9.861470 -0.555426 -32.947741 4.376973 -0.092720 -1.444930 -3.392567 -0.046416 -1.442107 -3.394064 0.000000 0.000000 0.000000 0.000000 0.000000 0.000000 0.000000 -10.771046 -13.694901 4.307133 81.802884 0.997991 10.489613 171.212013 73.176996 -179.929155 -3.587375 7.420912 0.033017 -3.617845 7.412356 0.000000 0.000000 0.000000 0.000000 0.000000 0.000000 0.000000 
-0.313589 17.320769 0.378259 -4.689313 8.903946 2.183102 -2.116708 6.585463 -0.488619 -13.759932 1.328644 1.899731 -0.866175 -3.572567 -11.911043 0.545383 -3.922326 -13.512693 0.000000 0.000000 0.000000 -3.593949 -8.908755 -18.853381 26.507800 -15.777820 11.276154 10.888446 -9.432788 -2.019915 1.707437 -2.885457 -21.179496 0.000000 0.000000 0.000000 1.358834 1.337621 21.348858 5.598397 1.544275 -5.503808 -7.309952 2.813142 -12.595168 6.763033 0.605708 0.518595 3.390759 0.019814 5.031286 0.000000 0.000000 0.000000 -4.184005 10.718910 6.927225 -67.676563 -8.784096 -0.639712 -30.835725 5.604176 -0.089072 -1.372214 -3.155581 -0.044578 -1.369951 -3.156806 0.000000 0.000000 0.000000 0.000000 0.000000 0.000000 0.000000 -9.002620 -14.109999 4.729720 79.074928 -2.379733 13.700365 174.772446 76.530809 -179.878581 -3.520002 9.061514 0.057843 -3.557196 9.052262 0.000000 0.000000 0.000000 0.000000 0.000000 0.000000 0.000000 
-0.296338 17.350670 0.624542 -4.774974 8.464743 1.941537 -2.042906 6.967888 -0.223819 -13.745407 1.374551 1.833277 -0.533052 -2.854913 -10.135868 0.615790 -4.546092 -15.255177 0.000000 0.000000 0.000000 -3.515038 -9.436146 -19.537006 26.901757 -16.375283 11.202969 9.639196 -10.752823 -0.187184 1.798936 -3.621389 -20.472852 0.000000 0.000000 0.000000 1.049988 1.405309 21.493708 5.929690 1.556324 -5.601030 -7.170319 2.725454 -13.624442 7.008182 0.642590 1.086125 3.279807 0.044729 4.919151 0.000000 0.000000 0.000000 -5.912232 11.808604 7.192810 -66.915822 -7.712487 -0.654031 -28.888190 6.537127 -0.083679 -1.311740 -2.938969 -0.041871 -1.309950 -2.939956 0.000000 0.000000 0.000000 0.000000 0.000000 0.000000 0.000000 -7.399121 -14.589616 5.464874 76.441168 -4.908813 16.763366 179.010487 80.811691 -179.823888 -3.145283 10.506663 0.084781 -3.186734 10.498577 0.000000 0.000000 0.000000 0.000000 0.000000 0.000000 0.000000 
